<?xml version="1.0" standalone="no"?>
<!DOCTYPE svg PUBLIC "-//W3C//DTD SVG 20010904//EN"
 "http://www.w3.org/TR/2001/REC-SVG-20010904/DTD/svg10.dtd">
<svg version="1.0" xmlns="http://www.w3.org/2000/svg"
 width="700.000000pt" height="700.000000pt" viewBox="0 0 700.000000 700.000000"
 preserveAspectRatio="xMidYMid meet">
<metadata>
Created by potrace 1.14, written by Peter Selinger 2001-2017
</metadata>
<g transform="translate(0.000000,700.000000) scale(0.100000,-0.100000)"
fill="#000000" stroke="none">
<path d="M3280 6994 c-19 -2 -84 -9 -145 -14 -639 -62 -1264 -315 -1795 -726
-149 -115 -481 -446 -595 -594 -410 -532 -653 -1132 -727 -1795 -17 -155 -17
-575 0 -730 92 -828 449 -1560 1043 -2140 566 -552 1265 -881 2074 -977 167
-19 597 -16 770 6 823 105 1523 449 2091 1028 204 208 346 389 490 623 269
439 429 910 496 1460 16 130 16 600 0 730 -77 630 -275 1158 -620 1649 -234
333 -577 668 -917 896 -460 308 -968 495 -1535 566 -117 15 -552 27 -630 18z
m927 -736 c-3 -13 -171 -1266 -373 -2785 l-368 -2763 -333 0 c-310 0 -333 1
-333 18 0 20 728 5497 735 5530 l5 22 336 0 336 0 -5 -22z m-1711 -974 c129
-125 234 -232 234 -238 0 -6 -347 -358 -770 -781 l-770 -770 772 -773 773
-773 -232 -230 c-128 -126 -236 -229 -240 -229 -5 0 -460 452 -1013 1005
l-1005 1005 1005 1005 c553 553 1007 1005 1008 1005 2 0 109 -102 238 -226z
m3257 -2796 l-1006 -1006 -239 231 c-131 127 -238 233 -238 236 0 3 348 354
772 778 l773 773 -773 773 -773 773 237 233 236 234 1009 -1009 1009 -1009
-1007 -1007z"/>
</g>
</svg>
